<svg xmlns="http://www.w3.org/2000/svg" width="15.998" height="21.335" viewBox="0 0 15.998 21.335">
  <g id="download_3_" data-name="download (3)" transform="translate(-64.065 0)">
    <path id="Path_12087" data-name="Path 12087" d="M197.2,203.991a.667.667,0,0,0-.943,0l-.862.862V200.8a.667.667,0,0,0-1.333,0v4.057l-.862-.862a.667.667,0,0,0-.943.943c2.149,2.149,2.045,2.073,2.216,2.144a.667.667,0,0,0,.726-.145l2-2A.667.667,0,0,0,197.2,203.991Z" transform="translate(-122.666 -191.792)" fill="#2e2eb0"/>
    <path id="Path_12088" data-name="Path 12088" d="M167.4,401.463h-6.666a.667.667,0,1,1,0-1.333H167.4a.667.667,0,1,1,0,1.333Z" transform="translate(-92.001 -383.46)" fill="#2e2eb0"/>
    <path id="Path_12089" data-name="Path 12089" d="M80.062,6.662a.666.666,0,0,0-.195-.462C73.494-.173,73.846.157,73.711.085,73.5-.03,74.1.006,65.513.006a1.449,1.449,0,0,0-1.448,1.448V19.888a1.449,1.449,0,0,0,1.448,1.448h13.1a1.449,1.449,0,0,0,1.448-1.448c0-.179,0-13.173,0-13.226Zm-6-.771V2.282L77.787,6c-3.873,0-3.614,0-3.632,0A.115.115,0,0,1,74.063,5.89Zm4.666,14a.115.115,0,0,1-.115.115h-13.1a.115.115,0,0,1-.115-.115V1.454a.115.115,0,0,1,.115-.115H72.73V5.89a1.449,1.449,0,0,0,1.448,1.448h4.551Z" transform="translate(0 0)" fill="#2e2eb0"/>
  </g>
</svg>
