<svg xmlns="http://www.w3.org/2000/svg" width="69.904" height="68.902" viewBox="0 0 69.904 68.902">
  <g id="Group_5018" data-name="Group 5018" transform="translate(-911.096 -360.061)">
    <g id="molecule_1_" data-name="molecule (1)" transform="translate(910.096 359.061)">
      <path id="Path_12042" data-name="Path 12042" d="M8.563,34.04a4.9,4.9,0,1,0-2.651.783,4.881,4.881,0,0,0,2.651-.783Z" transform="translate(0 -0.424)" fill="#fff"/>
      <path id="Path_12044" data-name="Path 12044" d="M37.947,55a2.831,2.831,0,0,0-1.587.469A2.942,2.942,0,1,0,37.947,55Z" transform="translate(-0.601 -0.955)" fill="#fff"/>
      <path id="Path_12045" data-name="Path 12045" d="M12.808,19.231A3.925,3.925,0,1,0,11,15.929,3.924,3.924,0,0,0,12.808,19.231Z" transform="translate(-0.177 -0.194)" fill="#fff"/>
      <path id="Path_12046" data-name="Path 12046" d="M58.867,15a3.933,3.933,0,0,0-2.873,6.615l-4.542,7.138,1.705.979,4.5-7.069A3.928,3.928,0,1,0,58.867,15Z" transform="translate(-0.892 -0.248)" fill="#fff"/>
      <path id="Path_12047" data-name="Path 12047" d="M30.181,15.769l5.232-7.194a3.886,3.886,0,0,0,1.437.283,3.934,3.934,0,1,0-3.03-1.431l-5.328,7.325Z" transform="translate(-0.486)" fill="#fff"/>
      <path id="Path_12048" data-name="Path 12048" d="M13.6,43.965,8.366,51.159a3.886,3.886,0,0,0-1.437-.283,3.934,3.934,0,1,0,3.03,1.431l5.328-7.325Z" transform="translate(-0.035 -0.76)" fill="#fff"/>
      <path id="Path_12049" data-name="Path 12049" d="M28.138,17H20.727a5.859,5.859,0,0,1-8.115,4.427l-2.028,3.155a6.853,6.853,0,0,1,0,10.373l4.875,7.584h12.68l8.209-12.77ZM14.922,24.859H22.78v1.965H14.922Zm5.894,9.823H14.922V32.717h5.894Zm3.929,0H22.78V32.717h1.965Zm3.929,0H26.71V32.717h1.965Zm0-3.929H14.922V28.788H28.674Zm-3.929-3.929V24.859h3.929v1.965Z" transform="translate(-0.169 -0.283)" fill="#fff"/>
      <path id="Path_12050" data-name="Path 12050" d="M38.4,31,30.189,43.77l5.9,9.178a4.9,4.9,0,0,1,6.585,3.592h2.142a6.862,6.862,0,0,1,9.649-5.271l4.822-7.5L51.079,31Zm-.536,7.859H45.72v1.965H37.862Zm5.894,9.823H37.862V46.717h5.894Zm3.929,0H45.72V46.717h1.965Zm3.929,0H49.65V46.717h1.965Zm0-3.929H37.862V42.788H51.614Zm0-3.929H47.685V38.859h3.929Z" transform="translate(-0.516 -0.53)" fill="#fff"/>
    </g>
    <g id="Group_5015" data-name="Group 5015" transform="translate(75 -11.037)">
      <g id="Group_5011" data-name="Group 5011" transform="translate(842.322 411.66)">
        <g id="Ellipse_546" data-name="Ellipse 546" transform="translate(34.678 -0.66)" fill="#fff" stroke="#3f3fd3" stroke-width="2">
          <circle cx="14.5" cy="14.5" r="14.5" stroke="none"/>
          <circle cx="14.5" cy="14.5" r="13.5" fill="none"/>
        </g>
        <path id="Path_12037" data-name="Path 12037" d="M50.984,55.127a1.659,1.659,0,0,0,2.347,0l2.976-2.976,2.976,2.976a1.66,1.66,0,1,0,2.347-2.347L58.654,49.8l2.976-2.976a1.66,1.66,0,0,0-2.347-2.347l-2.976,2.976L53.331,44.48a1.66,1.66,0,0,0-2.347,2.347L53.96,49.8l-2.976,2.976A1.658,1.658,0,0,0,50.984,55.127Z" transform="translate(-6.819 -35.823)" fill="#3f3fd3"/>
      </g>
    </g>
  </g>
</svg>
