<svg xmlns="http://www.w3.org/2000/svg" width="19.563" height="22.573" viewBox="0 0 19.563 22.573">
    <defs>
        <style>
            .prefix__cls-3{fill:#80868c}
        </style>
    </defs>
    <g id="prefix__file-and-folder" transform="translate(-48 -16)">
        <path id="prefix__Path_71" d="M57.5 45.821a1.5 1.5 0 0 1-1.5-1.5V25.5a1.5 1.5 0 0 1 1.5-1.5h11.291l4.515 4.515v15.8a1.5 1.5 0 0 1-1.5 1.5z" data-name="Path 71" transform="translate(-7.624 -7.624)" style="fill:#e9eef2"/>
        <path id="prefix__Path_72" d="M332.515 28.515H329.5a1.5 1.5 0 0 1-1.5-1.5V24z" data-name="Path 72" transform="translate(-266.832 -7.624)" style="fill:#c3c6c7"/>
        <path id="prefix__Path_73" d="M185.405 160h-9.029a.376.376 0 1 0 0 .752h9.029a.376.376 0 1 0 0-.752z" class="prefix__cls-3" data-name="Path 73" transform="translate(-121.98 -137.228)"/>
        <path id="prefix__Path_74" d="M96.376 208.752h7.524a.376.376 0 1 0 0-.752h-7.524a.376.376 0 1 0 0 .752z" class="prefix__cls-3" data-name="Path 74" transform="translate(-45.743 -182.971)"/>
        <path id="prefix__Path_75" d="M228.891 256h-4.515a.376.376 0 0 0 0 .752h4.515a.376.376 0 0 0 0-.752z" class="prefix__cls-3" data-name="Path 75" transform="translate(-167.723 -228.713)"/>
        <path id="prefix__Path_76" d="M106.158 304h-9.782a.376.376 0 1 0 0 .752h9.782a.376.376 0 0 0 0-.752z" class="prefix__cls-3" data-name="Path 76" transform="translate(-45.743 -274.456)"/>
        <path id="prefix__Path_77" d="M96.376 160.752h2.257a.376.376 0 0 0 0-.752h-2.257a.376.376 0 1 0 0 .752z" class="prefix__cls-3" data-name="Path 77" transform="translate(-45.743 -137.228)"/>
        <path id="prefix__Path_78" d="M292.138 208h-3.762a.376.376 0 1 0 0 .752h3.762a.376.376 0 1 0 0-.752z" class="prefix__cls-3" data-name="Path 78" transform="translate(-228.713 -182.971)"/>
        <path id="prefix__Path_79" d="M96.376 256.752h4.515a.376.376 0 0 0 0-.752h-4.515a.376.376 0 0 0 0 .752z" class="prefix__cls-3" data-name="Path 79" transform="translate(-45.743 -228.713)"/>
        <path id="prefix__Path_80" d="M228.138 400h-3.762a.376.376 0 1 0 0 .752h3.762a.376.376 0 1 0 0-.752z" class="prefix__cls-3" data-name="Path 80" transform="translate(-167.723 -365.942)"/>
        <path id="prefix__Path_81" d="M100.891 400h-4.515a.376.376 0 1 0 0 .752h4.515a.376.376 0 1 0 0-.752z" class="prefix__cls-3" data-name="Path 81" transform="translate(-45.743 -365.942)"/>
        <path id="prefix__Path_82" d="M96.376 352.752h3.01a.376.376 0 0 0 0-.752h-3.01a.376.376 0 1 0 0 .752z" class="prefix__cls-3" data-name="Path 82" transform="translate(-45.743 -320.199)"/>
        <path id="prefix__Path_83" d="M96.376 112.752h4.515a.376.376 0 1 0 0-.752h-4.515a.376.376 0 1 0 0 .752z" class="prefix__cls-3" data-name="Path 83" transform="translate(-45.743 -91.485)"/>
        <path id="prefix__Path_84" d="M197.643 352h-5.267a.376.376 0 1 0 0 .752h5.267a.376.376 0 0 0 0-.752z" class="prefix__cls-3" data-name="Path 84" transform="translate(-137.228 -320.199)"/>
        <path id="prefix__Path_85" d="M64.177 30.3a.376.376 0 0 0-.376.376v4.515a1.129 1.129 0 1 0 2.257 0v-14.3a.376.376 0 0 0-.11-.266l-4.514-4.515a.376.376 0 0 0-.266-.11H49.881A1.883 1.883 0 0 0 48 17.881v18.811a1.883 1.883 0 0 0 1.881 1.881H64.93a2.637 2.637 0 0 0 2.634-2.634v-5.266a.376.376 0 1 0-.752 0v5.267a1.881 1.881 0 1 1-3.762 0v-6.772a1.129 1.129 0 1 1 2.257 0v6.019a.376.376 0 1 1-.752 0v-4.514a.376.376 0 0 0-.378-.373zm-2.633-13.016l3.23 3.23h-2.1a1.13 1.13 0 0 1-1.129-1.129zm2.634 10a1.883 1.883 0 0 0-1.878 1.884v6.772a2.625 2.625 0 0 0 .793 1.881H49.881a1.13 1.13 0 0 1-1.129-1.129V17.881a1.13 1.13 0 0 1 1.129-1.129h10.91v2.634a1.883 1.883 0 0 0 1.881 1.881h2.634v6.4a1.871 1.871 0 0 0-1.129-.377z" class="prefix__cls-3" data-name="Path 85"/>
    </g>
</svg>
