<svg xmlns="http://www.w3.org/2000/svg" xmlns:xlink="http://www.w3.org/1999/xlink" width="373.437" height="245.5" viewBox="0 0 373.437 245.5">
    <defs>
        <linearGradient id="linear-gradient" x1=".5" x2=".5" y1="1" gradientUnits="objectBoundingBox">
            <stop offset="0" stop-color="gray" stop-opacity=".251"/>
            <stop offset=".54" stop-color="gray" stop-opacity=".122"/>
            <stop offset="1" stop-color="gray" stop-opacity=".102"/>
        </linearGradient>
        <linearGradient id="linear-gradient-2" x1=".5" x2=".5" y1="1" y2="0" xlink:href="#linear-gradient"/>
        <style>
            .cls-9{fill:#0c0c66}.cls-11,.cls-4{opacity:.1}.cls-3{fill:#65617d}.cls-5{fill:#a5636d}.cls-6{fill:#e7effd}.cls-7{fill:#3f3d56}.cls-14{fill:#fbbebe}.cls-16{fill:#5c5c8e}
        </style>
    </defs>
    <g id="undraw_confirmation_2uy0_1_" transform="translate(.05 -.017)">
        <path id="Path_785" fill="#0c0c66" d="M371.689 273.706q-1.748 1.537-3.575 2.986c-.2.166-.416.325-.624.494a125.52 125.52 0 0 1-13.648 9.219l-.887.517c-.214.13-.426.25-.65.37-4.959 2.863-10.1 5.5-15.309 7.994l-.055.029-.393.185q-6.3 3.019-12.784 5.778l-.1.039q-2.925 1.232-5.849 2.4c-.8.325-1.6.627-2.395.936-1.5.575-3.012 1.141-4.533 1.683l-.188.072-.325.114-.406.149q-5.95 2.125-12.059 3.926l-.071.02q-4.26 1.241-8.576 2.3l-.393.1c-4.224 1.02-8.517 1.9-12.836 2.6l-.994.159q-4.738.744-9.541 1.215c-18 1.739-36.213.325-54.1-2.1-36.122-4.9-71.767-14.087-104.276-28.486q-9.359-4.143-18.354-8.871c-.049-.026-.091-.052-.14-.075q-5.385-2.83-10.623-5.9c-1.024-.591-2.041-1.2-3.051-1.8q-1.865-1.124-3.714-2.275-2.437-1.521-4.874-3.116l-.76-.507-.292-.2c-.413-.276-.819-.552-1.228-.832-15.273-10.4-28.892-23-35.326-38.771-7.435-18.2-2.678-41.27 15.738-52.026 6.33-3.7 13.687-5.716 21.122-7.377l.76-.169c1.258-.276 2.515-.543 3.766-.809 4.384-.929 8.79-1.852 13.154-2.882 2.275-.536 4.527-1.1 6.766-1.706l.916-.253a109.54 109.54 0 0 0 15.8-5.563h.033q.824-.366 1.625-.757c.344-.162.689-.325 1.033-.5a61.209 61.209 0 0 0 15.874-11.1c.361-.364.712-.734 1.053-1.1.263-.289.523-.582.773-.874 3.155-3.679 5.339-7.763 5.755-12.1a15.6 15.6 0 0 0-.195-4.364c-.51-2.726-1-5.394-1.368-8a40.984 40.984 0 0 1 .033-14.074 26.492 26.492 0 0 1 7.282-13.307q.939-.975 2.025-1.95a42.661 42.661 0 0 1 11.253-7.11q.76-.325 1.531-.65c11.4-4.614 25.1-5.576 37.893-4.939a206.719 206.719 0 0 1 35.505 4.939c.926.208 1.852.426 2.772.65a246.114 246.114 0 0 1 29.246 9.044c24.82 9.336 48.247 22.3 70.133 36.6l.65.422q1.371.894 2.726 1.794 2.622 1.739 5.2 3.5l1.16.79q.858.585 1.706 1.173l1.742 1.206a1.91 1.91 0 0 1 .234.166l1.482 1.027c.858.6 1.709 1.2 2.564 1.8l1.833 1.3c.38.273.764.543 1.144.819l1.95 1.423.435.325c.091.065.182.13.27.2l.055.036c5.284 3.877 10.441 7.9 15.273 12.157l.624.552.065.058c.526.468 1.053.942 1.57 1.42a105.8 105.8 0 0 1 16.586 18.744c21.212 31.514 14.911 75.159-14.618 101.113z" opacity="0.1" transform="translate(-25.44 -72.24)"/>
        <path id="Path_786" fill="url(#linear-gradient)" d="M915.71 272.888c.208-.565-1.345-3.7-1.345-3.861s-1.625-1.9-1.625-2.882-2.122-3.087-2.122-3.087-2.853-1.186-3.165-3.757-3.3-2.626-3.419-2.629c0 0 0-.234.02-.591a8.589 8.589 0 0 0-.383-3.009 3.054 3.054 0 0 0-1.761-1.5 6.786 6.786 0 0 0-.936-2.622 2.954 2.954 0 0 1-.721-2.782 3.693 3.693 0 0 0-.406-2.4 2.461 2.461 0 0 0-1.514-1.407h-.055c-1.488-.361-3.155-.913-3.155-.913s-.169.033-.419.068l-.208-.068a9.291 9.291 0 0 1-1.085.136 1.348 1.348 0 0 1-.881-.289c-.52-.569-4.719-1.648-5.5-1.648a13.054 13.054 0 0 1-3.009-1.03l-2.226-1.7a14.193 14.193 0 0 1-1.95-2.691l-.026-.036a8.819 8.819 0 0 1-.409-1.134c-.023-.071-.039-.143-.062-.221a12.4 12.4 0 0 0 1.238-1.521v-.014c.1-.14.2-.292.289-.439q.2-.325.39-.673c.052-.1.1-.2.153-.3a1.3 1.3 0 0 0 .325-.055l.14-.052a1.647 1.647 0 0 0 .357-.224l.1-.094a2.538 2.538 0 0 0 .65-1c.036-.11.068-.224.094-.325a.474.474 0 0 1 .029-.117c.01-.036.036-.156.049-.237l.02-.13a1.316 1.316 0 0 1 .039-.231.442.442 0 0 0 0-.133c0-.094.026-.195.036-.292.046-.367.084-.728.162-1.085a.031.031 0 0 0 0-.016 8.3 8.3 0 0 1 .767-1.976c.325-.627.682-1.245.975-1.891.084-.185.166-.374.237-.562s.143-.416.208-.627a.859.859 0 0 1 .046-.192 4.563 4.563 0 0 0 .1-.465 1.635 1.635 0 0 0 .039-.2c.039-.214.065-.429.084-.65a7.975 7.975 0 0 0-.533-3.617c-.387-.975-.975-1.836-1.362-2.8-.595-1.466-.751-3.123-1.479-4.52a5.385 5.385 0 0 0-6.457-2.629c-1.124.416-2.1 1.232-3.25 1.6-1.527.491-3.168.12-4.754-.1s-3.341-.237-4.614.8c-1.466 1.193-1.869 3.435-3.25 4.741a7.472 7.472 0 0 1-1.082.812c-.279.192-.562.38-.825.6a3.078 3.078 0 0 0-.959 1.3 1.124 1.124 0 0 0-.036.11 1.014 1.014 0 0 0-.036.133 1.343 1.343 0 0 1-.023.153.581.581 0 0 0 0 .107 1.882 1.882 0 0 0 0 .234v.039a1.494 1.494 0 0 0 .042.26v.072a1.288 1.288 0 0 0 .065.214.163.163 0 0 1 0 .042 2.353 2.353 0 0 0 .094.234.379.379 0 0 0 .045.117.444.444 0 0 1 .046.1 6.149 6.149 0 0 1 .481 1.193 1.352 1.352 0 0 1-.049.793 1.267 1.267 0 0 1-.208.348 4.342 4.342 0 0 1-.364.4 10.766 10.766 0 0 0-2.343 3.747c-.059.159-.114.325-.166.484l.068.02.068.016a2.274 2.274 0 0 0 .387.081 2.365 2.365 0 0 0 .26.029 4.027 4.027 0 0 0 1.059-.084 1.628 1.628 0 0 0 .172-.039.189.189 0 0 0 .052-.016h.032a5.629 5.629 0 0 0 .851-.3c.065-.029.133-.055.2-.088v1.209a12.228 12.228 0 0 0 6.226 9.941c.185.107.367.208.556.3.016.11.033.224.046.325s.026.185.036.279l-.143-.133a.946.946 0 0 0-.387-.078 1.241 1.241 0 0 0-.617.159 2.275 2.275 0 0 0-.809.79 5.763 5.763 0 0 1-2.541 1.95s-9.424 1.492-9.794 2.726l-4.406.26s-1.557.2-1.709 3.448v.075c-.023.387-.052.731-.088 1.04v.045c-.273 2.161-.89 2.392-.89 2.392s-1.816 3.191-1.66 4.839a.154.154 0 0 1 0 .039 2.123 2.123 0 0 1-.042.666 2.925 2.925 0 0 1-1.358 1.752l-.2 2.925a1.992 1.992 0 0 0-2.177 1.752 6.931 6.931 0 0 1-1.3 2.925s-2.85 2.369-3.006 4.374l-1.765 1.082s-4.091-.926-5.027-2.574c0 0-.11-.11-.286-.27l-.026-.039a.1.1 0 0 0 0 .02 14.342 14.342 0 0 0-1.713-1.511 1.273 1.273 0 0 1 .084.832l-.305-.325-.816-.91s-1.167-1.092-2.808-2.395q-.562-.448-1.186-.916c-2.1-1.557-4.624-3.136-6.5-3.373-.039-.078-.2-.666-.562-.666a.618.618 0 0 0-.4.2 5.407 5.407 0 0 0-.036 7.929l.426.4 1.319 1.235 4.452 4.159c.055.039.107.081.163.117l.263.325.2.263.354.452.51.65c-.026.068-.055.133-.078.2-.192.468-.357.923-.494 1.339v.045c-.032.1-.065.2-.094.3a.4.4 0 0 1-.033.1c-.032.1-.058.195-.088.283a1.392 1.392 0 0 0-.046.169.931.931 0 0 1-.032.1c-.146.517-.237.913-.286 1.134l-.344-.107.325.146a.463.463 0 0 1 0 .055l-.02.1c.1.049.208.094.325.14l.075.032 1.274.562c.257.114.536.234.835.37s.53.237.819.361c3.328 1.482 7.991 3.61 8.322 4.036a6.552 6.552 0 0 0 7.052.975 7.423 7.423 0 0 0 3.779-4.172 43.3 43.3 0 0 0 3.113-4.783c.078-.474 1.469-1.011 2.112-1.235l.062-.019.26-.084v.786a39.879 39.879 0 0 1-.474 6.892.044.044 0 0 0 0 .02 7.491 7.491 0 0 1-.517 1.722c-1.193 2.522-3.419 13.694-3.419 13.694h.052a1.507 1.507 0 0 1 .39-.019c-.045.208-.075.37-.1.481s-.032.166-.032.166h.039a1.5 1.5 0 0 1 .377-.023.8.8 0 0 1 .127.016 1.972 1.972 0 0 1-.032.234v.081c0 .013-.019.1-.026.156-.27 1.859-1.05 6.7-1.05 6.7a15.33 15.33 0 0 1-.832 3.6 8.915 8.915 0 0 0-.435 2.6c0 .162-.023.325-.036.494-.085 1.378-.1 2.668-.1 2.668l-.023.084-.764 3.464a.986.986 0 0 0 .042.094c.055.1.143.283.27.5l.039.084a9.672 9.672 0 0 0 1.8 2.535 4.678 4.678 0 0 0 .546.465.585.585 0 0 1-.023.114c-.007.032-.019.123-.029.182a5.264 5.264 0 0 1-.367 1.3 4.345 4.345 0 0 0-.374 1.417 6.523 6.523 0 0 0-.032 1.053l-.042.192c-.114.53-.439 2.083-.614 3.347-.042.289-.081.569-.1.829a4.024 4.024 0 0 0 0 .725 5.955 5.955 0 0 1-.065 1.215 2.723 2.723 0 0 1-.042.357c-.175 1.144-.465 2.343-.465 2.343l-.933 8.953v.53a1.031 1.031 0 0 1-.019.234c0 .211-.033.461-.055.754a2.839 2.839 0 0 1-.02.325 1.692 1.692 0 0 1-.02.309v.169a1.533 1.533 0 0 1-.016.257 1.25 1.25 0 0 0 0 .247v.231c-.029.478-.062.994-.084 1.518v.5a3.753 3.753 0 0 1-.023.5v3.308a9.44 9.44 0 0 0 .078 1.033c.036.253.062.52.075.793v.377a1.867 1.867 0 0 1 0 .188v1.456c-.081 1.118-.234 2.025-.257 2.168v.305c0 .081.019.185.029.3v.162a.641.641 0 0 0 .02.189c.02.065 0 .062 0 .1 0 .117.02.237.032.364s.029.263.039.4l.019.257c0 .123.026.253.036.38v.13c0 .088.019.172.026.263l.029.4c0 .088.019.179.026.266a.909.909 0 0 1 0 .136l.042.526a1.4 1.4 0 0 0 .016.26c0 .136.02.276.032.406s0 .3.023.435a2.8 2.8 0 0 1 .02.4 5.5 5.5 0 0 1 0 1.1c-.085.37-.357 1.407-.513 2.531 0 .1-.029.2-.039.305a1.092 1.092 0 0 0 0 .182l-.02.244c0 .2-.023.393-.023.585a4.507 4.507 0 0 0 .146 1.3 6.167 6.167 0 0 1 .162.858.438.438 0 0 0 .016.143c0 .1.023.211.032.325l.023.325c0 .227.019.461.029.7v.471c.023 1.371-.042 2.713-.062 3.058v.084s.325 5.768.673 7.617c.045.244.078.491.1.744a1.646 1.646 0 0 0 .016.283 14.5 14.5 0 0 1-.221 3.2 35.144 35.144 0 0 1-.517 3.961 2.537 2.537 0 0 0-.465 1.534v.026a5 5 0 0 0 1.706 3.848l.156.153.188-.071c1.521-.543 3.029-1.108 4.533-1.683.8-.309 1.6-.617 2.395-.936q2.951-1.167 5.849-2.4a.37.37 0 0 1-.185-.234 10.584 10.584 0 0 1 .237-3.627c.091-.377.933-8.394.933-8.394a10.38 10.38 0 0 1 .1-3.6c.429-1.079-.52-5.255-.52-5.255a.929.929 0 0 1 .26-1.131c.585-.617.364-6.125.364-6.125s-.052-2.782-.052-3.5a12.849 12.849 0 0 1 1.189-4.224c.565-.877.211-3.607.211-3.607l.033-.208a2.062 2.062 0 0 1 .045-.289l.049-.276a38.192 38.192 0 0 1 1.007-4.468c.676-2.161 1.453-5.97 1.453-5.97l4.533-12.157.149-.377.055-.149a19.754 19.754 0 0 1 2.248 7.908 45.9 45.9 0 0 1 .419 5.817 70.113 70.113 0 0 0 .465 7.052s.669 8.342.669 8.7.832 6.775 1.352 7.75-.52 3.964-.829 4.273.1 7.877.1 7.877-.783 5.969-.936 7.2c-.029.224-.075.562-.124.975 5.2-2.5 10.35-5.131 15.309-7.994.215-.12.426-.24.65-.37l.036-7.386a18.66 18.66 0 0 0-.052-4.842c-.416-1.394-.829-4.062-.257-4.783s.052-4.065.052-4.065 0-7.055.777-8.8.52-12.816.52-12.816l.2-7.26s1.654-1.566 1.3-9.68v-.276c1.807-.114 3.844-.179 4.153.075.494.4 3.276 2.2 5.43 1.748a2.644 2.644 0 0 0 .994-.413 29.242 29.242 0 0 0 2.6-2.008l-.825-13.885-.088-1.544c.156.237.293.448.409.65.325.494.5.8.5.8 0-2.161 6.119-9.161 6.119-9.161s5.7-7.36 6.944-8.238 3.682-5.508 3.682-5.508a22.469 22.469 0 0 1 1.245-2.574c.563-.941-1.314-3.414-1.104-3.979zm-18.246 9.882a3.226 3.226 0 0 1-.689 1.388l-.078-.952v-.084c-.364-4.53-.754-10.009-.575-10.545a12.572 12.572 0 0 0 .215-2.658c.023-1.245 0-2.431 0-2.431l.059-.081c1.046 3.25 4.293 7.039 4.293 7.039s.572 1.647 1.245 1.7.413 2.161.413 2.161a2.451 2.451 0 0 0-.884.325 7.728 7.728 0 0 0-.916.621c-1.491 1.129-3.047 2.991-3.083 3.517z" transform="translate(-555.55 -162.163)"/>
        <path id="Path_787" d="M837 405.3s1.891-9.911 7.968-9.963l4.445 9.144-2.99 2.031S840 406.72 837 405.3z" class="cls-3" transform="translate(-573.31 -290.335)"/>
        <path id="Path_788" d="M849.4 404.492l-2.977 2.044a35.134 35.134 0 0 1-7.766-.65 8.875 8.875 0 0 1-1.657-.562.6.6 0 0 1 .032-.159.231.231 0 0 1 0-.039 22.554 22.554 0 0 1 1.15-3.64c.185-.445.4-.9.627-1.362a9.3 9.3 0 0 1 3.854-4.225 5.271 5.271 0 0 1 2.025-.53h.27l.1.2 1.5 3.09z" class="cls-4" transform="translate(-573.31 -290.355)"/>
        <path id="Path_789" d="M1020.827 491.246s6.385-.611 6.948-.153 4.189 2.811 6.337 1.329.715-6.642.715-6.847-.2-7.51-.2-7.51l-3.831-5.16-4.8-9.04-9.807-.975.254 14.357-.049 7.357z" class="cls-3" transform="translate(-694.264 -335.934)"/>
        <path id="Path_790" d="M1020.827 491.246s6.385-.611 6.948-.153 4.189 2.811 6.337 1.329.715-6.642.715-6.847-.2-7.51-.2-7.51l-3.831-5.16-4.8-9.04-9.807-.975.254 14.357-.049 7.357z" class="cls-4" transform="translate(-694.264 -335.934)"/>
        <path id="Path_791" d="M827.291 374.979s-.5 6.233-4.4 6.33a30.558 30.558 0 0 1-2.58-1.771c-3.412-2.551-8.823-7.458-7.328-12.023 2.145-6.538 12.566 5.524 12.566 5.524l.8.9z" class="cls-5" transform="translate(-556.923 -270.24)"/>
        <path id="Path_792" d="M842.368 392.34s-.5 6.233-4.4 6.33a30.552 30.552 0 0 1-2.58-1.771l-.325-.426a5.076 5.076 0 0 0 2.128.575 2.853 2.853 0 0 0 2.778-1.752 22.548 22.548 0 0 0 1.076-2.473 7.447 7.447 0 0 0 .39-1.534z" class="cls-4" transform="translate(-572 -287.601)"/>
        <path id="Path_793" d="M841.316 402.556l-.874-1.124-2.925-3.786-1.517-1.934a5.072 5.072 0 0 0 2.125.572 2.849 2.849 0 0 0 2.778-1.752 21.95 21.95 0 0 0 1.076-2.473c.484-1.378.474-2.086.3-2.327a15.632 15.632 0 0 1 1.69 1.5l.023.019.279.266.107.208 1.479 2.96v.123c.143.943.636 6.903-4.541 7.748z" class="cls-6" transform="translate(-572.635 -286.528)"/>
        <path id="Path_794" d="M912.581 579.645a1.484 1.484 0 0 0-.305-.2h-.026c-.611-.257-.052-3.425.052-3.834s.92-8.312.92-8.312a10.77 10.77 0 0 1 .1-3.575c.409-1.076-.513-5.2-.513-5.2a.956.956 0 0 1 .257-1.124c.562-.614.357-6.08.357-6.08s-.049-2.756-.049-3.474a12.67 12.67 0 0 1 1.173-4.189c.562-.871.2-3.575.2-3.575l.029-.208c.016-.075.029-.172.046-.286l.049-.273a1.323 1.323 0 0 1 .036-.208c.029-.162.062-.325.1-.533.019-.117.042-.24.068-.364.075-.39.162-.819.257-1.258.029-.136.062-.276.094-.413s.078-.325.12-.494c.026-.1.049-.2.078-.3.075-.3.156-.588.244-.864.65-2.148 1.433-5.927 1.433-5.927l4.748-12.472.055-.149.149.289a19.127 19.127 0 0 1 2.047 7.578 45.012 45.012 0 0 1 .409 5.771 68.375 68.375 0 0 0 .461 7s.65 8.273.65 8.631.819 6.746 1.329 7.714-.51 3.935-.819 4.224.1 7.819.1 7.819-.767 5.924-.923 7.149c-.032.293-.1.783-.166 1.384l.393-.185.055-.029c5.2-2.5 10.35-5.131 15.309-7.994l.042-7.835a18.774 18.774 0 0 0-.049-4.8c-.406-1.378-.819-4.036-.26-4.754s.055-4.033.055-4.033 0-7 .764-8.735.513-12.722.513-12.722l.2-7.2s1.667-1.589 1.274-9.882c-.042-.884-.107-1.842-.2-2.889-.283-3.129-.569-5.963-.829-8.416l-.068-.621c-.026-.273-.058-.543-.084-.806-.062-.556-.12-1.089-.179-1.6-.019-.149-.036-.3-.052-.442q-.127-1.092-.237-2.015c-.026-.241-.058-.478-.084-.7-.042-.325-.081-.65-.117-.952a1.616 1.616 0 0 0-.029-.215 2.733 2.733 0 0 0-.045-.374c-.169-1.326-.27-2.05-.27-2.05h-.046l-5.138.045-11.214.107h-.328l-5.849.055h-.357l-2.808.029h-.478l-5.849.055h-.354l-2.4 9.9-4.9 11.24s-.075 1.232-.247 2.434v.072a.234.234 0 0 1-.02.117.858.858 0 0 0-.029.182 6.315 6.315 0 0 1-.413 1.589 3.968 3.968 0 0 0-.325 1.121 6.564 6.564 0 0 0-.075 1.245v.068s-.39 1.771-.617 3.279c-.042.289-.081.569-.1.829a5.244 5.244 0 0 0-.045.952 5.333 5.333 0 0 1-.036.975 2.714 2.714 0 0 1-.042.357c-.159 1.2-.481 2.535-.481 2.535l-.923 8.891a.2.2 0 0 1 0 .029v.37a1.028 1.028 0 0 1-.02.234c0 .211-.032.461-.055.754a2.835 2.835 0 0 1-.019.325 1.7 1.7 0 0 1-.019.309v.169a1.521 1.521 0 0 1-.016.257 1.259 1.259 0 0 0 0 .247v.231c-.026.478-.058.994-.081 1.518v.5a3.753 3.753 0 0 1-.023.5v3.334a8.855 8.855 0 0 0 .078 1.085c.032.241.058.487.075.741v2.021c-.081 1.118-.234 2.024-.257 2.167v.305c0 .081.019.185.029.3v.162a.641.641 0 0 0 .02.189c.019.065 0 .062 0 .1 0 .117.019.237.033.364s.026.263.039.4l.02.257c0 .123.026.253.036.38v.13c0 .088.02.172.026.263l.029.4c0 .088.02.179.026.266v.136l.042.526a1.392 1.392 0 0 0 .016.26c0 .137.019.276.032.406s0 .3.023.435a2.786 2.786 0 0 1 .02.4 5.778 5.778 0 0 1 0 1.066 24.891 24.891 0 0 0-.507 2.567c0 .1-.029.2-.039.305a1.1 1.1 0 0 0 0 .182l-.019.244c0 .195-.023.393-.023.585a4.481 4.481 0 0 0 .146 1.225 6.886 6.886 0 0 1 .179 1.079c.026.208.042.429.055.65s.02.461.029.7v.471c.019 1.544-.065 3.019-.065 3.019a.344.344 0 0 0 0 .039v.026c.032.65.325 5.775.65 7.5a7.818 7.818 0 0 1 .114.923 1.658 1.658 0 0 0 .016.283 14.882 14.882 0 0 1-.231 2.986 35.672 35.672 0 0 1-.63 3.968 2.775 2.775 0 0 0-.458 1.778v.026a5.05 5.05 0 0 0 1.687 3.575l.364.364c1.521-.543 3.029-1.108 4.533-1.683.8-.309 1.6-.617 2.395-.936q2.951-1.167 5.849-2.4z" class="cls-7" transform="translate(-614.244 -350.616)"/>
        <path id="Path_795" d="M990.215 287.275l-7.562 8.075s-9.7-3.9-8.683-5.2c.4-.513.325-2.135.1-3.925-.357-2.83-1.124-6.09-1.124-6.09s16.96-2.759 15.527.1a4.693 4.693 0 0 0-.107 3.393 12.861 12.861 0 0 0 1.849 3.647z" class="cls-5" transform="translate(-665.082 -211.76)"/>
        <path id="Path_796" d="M988.477 280.2c-.52 1.043-.77 1.144-.445 2.275-2.216 2.379-5.037 4.982-8.543 4.982a12.1 12.1 0 0 1-5.414-1.267c-.357-2.83-1.124-6.09-1.124-6.09s16.959-2.761 15.526.1z" class="cls-4" transform="translate(-665.082 -211.734)"/>
        <path id="Path_797" d="M979.97 241.418a12.16 12.16 0 0 1-24.32 0v-.176a12.159 12.159 0 1 1 24.318.176z" class="cls-5" transform="translate(-653.404 -178.163)"/>
        <path id="Path_798" d="M964.859 499.706c-1.625 0-6.974.058-12.966.153h-.075l-1.979.032h-.062c-7.107.114-14.11-1.274-16.921-1.011-5.979.562 2.145-5.524 2.145-5.524a50.046 50.046 0 0 0 13.616 1.378l1.719-.091c5.43-.305 10.889-.816 13.743-1.674.199 1.587.488 3.884.78 6.737z" class="cls-4" transform="translate(-636.535 -356.239)"/>
        <path id="Path_799" fill="#5f5d7e" d="M964.859 498.766c-1.625 0-6.974.055-12.966.153h-.075l-1.979.032h-.062c-7.107.114-14.11-1.274-16.921-1.011-5.979.559 2.145-5.524 2.145-5.524a49.963 49.963 0 0 0 13.616 1.375l1.719-.088c5.43-.305 10.889-.819 13.743-1.674.199 1.587.488 3.891.78 6.737z" transform="translate(-636.535 -355.604)"/>
        <path id="Path_800" d="M948.411 311.166l-9.4 4.393-7.25 56.081s4.289-1.95 6.743-.715 10.012.1 10.012.1 5.524-.325 6.333.306 10.425-2.554 10.425-2.554 1.735-3.883.406-4.494.41-6.652.41-6.652l-.816-40.461-1.625-5.2-4.394-2.655-4.494 3.575-2.145.309z" class="cls-4" transform="translate(-637.277 -232.268)"/>
        <path id="Path_801" d="M948.411 309.279l-9.4 4.393-7.253 56.094s4.289-1.95 6.743-.715 10.012.1 10.012.1 5.524-.305 6.333.305 10.425-2.554 10.425-2.554 1.735-3.88.406-4.494.41-6.642.41-6.642l-.816-40.461-1.625-5.2-4.394-2.658-4.494 3.575-2.145.305z" class="cls-6" transform="translate(-637.277 -231.005)"/>
        <path id="Path_802" d="M967.389 319.4s2.71 3.217 2.658 3.883-.153 2.245-.153 2.245l-2.028 4.14s-1.124 5.16-1.124 6.233-1.787 10.369-1.787 10.369l-2.145 14.3-2.71 18.75 2.759 4.751 3.269-2.759 4.338-33.406.92-6.59s.975-11.851.975-13.076a41.775 41.775 0 0 0-.562-4.445s.666-3.064 3.425-3.779-.2-.156-.2-.156l-1.583-1.277-1.381.562s-3.852-1.176-4.671.255z" class="cls-4" transform="translate(-656.408 -238.518)"/>
        <path id="Path_803" d="M966.408 318.459s2.707 3.217 2.658 3.88-.156 2.249-.156 2.249l-2.044 4.14s-1.124 5.157-1.124 6.229-1.787 10.373-1.787 10.373l-2.148 14.3-2.707 18.745 2.759 4.751 3.269-2.759 4.338-33.4.92-6.59s.975-11.851.975-13.08a41.555 41.555 0 0 0-.562-4.442s.65-3.068 3.422-3.783-.2-.153-.2-.153l-1.586-1.277-1.378.562s-3.83-1.178-4.649.255z" class="cls-9" transform="translate(-655.732 -237.884)"/>
        <path id="Path_804" d="M971.844 303.65s-.41.305-.51 2.349a40.79 40.79 0 0 1-1.534 6.642s5.313-3.679 7.971-3.269z" class="cls-4" transform="translate(-662.956 -228.44)"/>
        <path id="Path_805" d="M971.844 301.76s-.41.309-.51 2.349a40.879 40.879 0 0 1-1.534 6.642s5.313-3.679 7.971-3.269z" class="cls-6" transform="translate(-662.956 -227.164)"/>
        <path id="Path_806" d="M1003.364 298.62L995 305.977s7.052 4.189 7.971 5.2 1.839-10.012 1.839-10.012z" class="cls-4" transform="translate(-679.967 -225.045)"/>
        <path id="Path_807" d="M1004.277 296.73l-8.377 7.357s7.048 4.189 7.968 5.2 1.839-10.015 1.839-10.015z" class="cls-6" transform="translate(-680.574 -223.769)"/>
        <path id="Path_808" d="M926.372 303.489s-.92-.461-1.787.868a5.815 5.815 0 0 1-2.5 1.95s-9.3 1.482-9.658 2.707l-4.341.253s-1.534.185-1.677 3.435-.975 3.523-.975 3.523-1.791 3.168-1.625 4.8a2.66 2.66 0 0 1-1.381 2.453l6.4 16.586s.2 6.847-.975 9.349-3.373 13.59-3.373 13.59.92-.2.868.409-1.124 7.305-1.124 7.305a14.711 14.711 0 0 1-.816 3.575c-.51.92-.562 5.723-.562 5.723l-.846 3.476s1.95 4.341 4.907 3.727 8.325-12.209 8.325-12.209l3.422-12.514 2.658-12.365.767-8.377 1.225-18.545 1.787-12.261s2.009-6.59 1.281-7.458z" class="cls-4" transform="translate(-617.188 -228.279)"/>
        <path id="Path_809" d="M925.469 301.6s-.92-.458-1.787.871a5.816 5.816 0 0 1-2.505 1.95s-9.3 1.482-9.655 2.707l-4.341.257s-1.534.2-1.687 3.422-.975 3.526-.975 3.526-1.787 3.168-1.625 4.8a2.659 2.659 0 0 1-1.378 2.45l6.376 16.592s.2 6.847-.975 9.349-3.37 13.59-3.37 13.59.92-.2.868.409-1.124 7.305-1.124 7.305a14.711 14.711 0 0 1-.816 3.575c-.51.92-.562 5.723-.562 5.723l-.812 3.49s1.95 4.341 4.9 3.731 8.329-12.212 8.329-12.212l3.422-12.514 2.658-12.348.764-8.377 1.228-18.542 1.787-12.261s1.995-6.621 1.28-7.493z" class="cls-3" transform="translate(-616.58 -227.006)"/>
        <path id="Path_810" d="M848.739 403.817l-2.977 2.044a35.135 35.135 0 0 1-7.767-.65l-1.651-.731-.325-.146.341.107a6.744 6.744 0 0 0 4.088.146c4.2-1.41 3.731-8.335 3.575-9.9a1.4 1.4 0 0 0-.033-.3.1.1 0 0 1 0-.02l.026.039a1.863 1.863 0 0 0 .192.27 2.162 2.162 0 0 0 .188.2l1.479 2.96v.123z" class="cls-4" transform="translate(-572.648 -289.68)"/>
        <path id="Path_811" d="M859.642 362l-1.43.409-.2 2.925a1.963 1.963 0 0 0-2.145 1.739 7.1 7.1 0 0 1-1.281 2.927s-2.811 2.349-2.964 4.341l-1.739 1.072s-4.036-.92-4.956-2.554c0 0 1.839 13.18-7.968 9.963 0 0 10.984 4.8 11.494 5.466a6.456 6.456 0 0 0 6.948.975 7.37 7.37 0 0 0 3.731-4.189 42.725 42.725 0 0 0 3.064-4.751c.1-.614 2.4-1.329 2.4-1.329l4.393-10.623z" class="cls-3" transform="translate(-573.283 -267.829)"/>
        <path id="Path_812" d="M1015.014 303.473l1.482-6.743s.65 2.2 1.329 2.707 2.2 1.687 2.2 1.687a12.765 12.765 0 0 0 2.96 1.024c.764 0 4.907 1.072 5.417 1.625s2.554.153 2.554.153 1.687.562 3.168.92 2.2 2.811 1.888 3.779a2.954 2.954 0 0 0 .715 2.759 6.543 6.543 0 0 1 .92 2.6 3 3 0 0 1 1.739 1.482 10.306 10.306 0 0 1 .357 3.575l-7.61 10.724a31.3 31.3 0 0 1-.2 5.056c-.305.92 1.072 16.553 1.072 16.553l1.583 26.871a28.247 28.247 0 0 1-2.554 1.992c-.461.2-.92-9.5-.92-9.859s-11.8-17.678-11.8-17.678a15.849 15.849 0 0 1-1.586-3.116c0-.562-1.482-5.719-1.482-5.719l-2.239-9.94z" class="cls-4" transform="translate(-692.792 -223.769)"/>
        <path id="Path_813" d="M1041.636 318.443c0 .351-.02.585-.02.585l-7.607 10.724a31.27 31.27 0 0 1-.2 5.06c-.179.533.211 6.031.572 10.545.257 3.25.5 6.005.5 6.005l.669 11.4.91 15.475a28.59 28.59 0 0 1-2.551 1.992c-.458.2-.92-9.5-.92-9.863s-11.809-17.681-11.809-17.681a15.9 15.9 0 0 1-1.583-3.12c0-.562-1.482-5.723-1.482-5.723l-2.245-9.96 1.021-30.449.868-6.743a14.427 14.427 0 0 0 1.95 2.707c.673.507 2.193 1.687 2.193 1.687a12.746 12.746 0 0 0 2.964 1.024c.767 0 4.9 1.072 5.417 1.625s2.554.153 2.554.153 1.683.562 3.165.92 2.2 2.811 1.891 3.779a2.944 2.944 0 0 0 .715 2.759 6.579 6.579 0 0 1 .92 2.6 3.005 3.005 0 0 1 1.739 1.482 8.786 8.786 0 0 1 .369 3.017z" class="cls-3" transform="translate(-694.055 -223.742)"/>
        <path id="Path_814" d="M910.23 783.166c-.8.325-1.6.627-2.395.936-2.505-.731-4.845-1.592-4.845-1.592a66.531 66.531 0 0 1 7.24.656z" class="cls-4" transform="translate(-617.856 -551.69)"/>
        <path id="Path_815" d="M999.67 700.6s6.08 1.43 6.438 2.4z" class="cls-4" transform="translate(-683.119 -496.398)"/>
        <path id="Path_816" d="M924.522 714.12s-3.168.92-.1 2.759.1-2.759.1-2.759z" class="cls-4" transform="translate(-631.42 -505.524)"/>
        <path id="Path_817" d="M970.74 560.444c.358 0 5.927-1.839 7.867-1.02a12.908 12.908 0 0 0 4.345.816z" class="cls-4" transform="translate(-663.59 -400.956)"/>
        <path id="Path_818" d="M957.947 575.141l-.055.507-4.764 12.459s-.767 3.779-1.433 5.924a38.808 38.808 0 0 0-.994 4.436l4.224-26.146z" class="cls-4" transform="translate(-650.062 -409.803)"/>
        <path id="Path_819" d="M989.121 502.409l-1.979.032h-.062l-1.16-5.151c.569-.026 1.144-.055 1.719-.091z" class="cls-7" transform="translate(-673.837 -359.094)"/>
        <path id="Path_820" d="M1027.245 483.82l-1.271 1.05-4.234 3.5s-11.494 6.132-14.659.305c-2.791-5.131 10.239-8.793 13.379-9.593.426-.107.669-.162.669-.162z" class="cls-5" transform="translate(-687.859 -346.755)"/>
        <path id="Path_821" d="M918.87 339.49s2.245 1.024 2.756 2.453-2.756-2.453-2.756-2.453z" class="cls-4" transform="translate(-628.576 -252.633)"/>
        <path id="Path_822" d="M892.778 386.66s-3.269 3.984-1.95 5.524 1.95-5.524 1.95-5.524z" class="cls-4" transform="translate(-609.435 -284.475)"/>
        <path id="Path_823" d="M1070.748 346.41s-3.064.305-3.168 2.964z" class="cls-4" transform="translate(-728.961 -257.305)"/>
        <path id="Path_824" d="M989.92 454.829c.325-.305 7.357-10.724 8.992-9.807z" class="cls-4" transform="translate(-676.537 -323.833)"/>
        <path id="Path_825" d="M979.97 241.445a12.117 12.117 0 0 1-1.44 5.739h-.091c-.77-.162-1.17-1.059-1.758-1.625a2.4 2.4 0 0 0-2.759-.387 2.8 2.8 0 0 0-1.355 2.622c-.39-1.625-.266-3.376-.65-5.014s-1.524-3.3-3.09-3.328c-.676 0-1.462.25-1.95-.257-.3-.305-.354-.786-.575-1.157-1.121-1.81-4.527-.894-5.917.036a36.394 36.394 0 0 1-4.735 3.207 12.159 12.159 0 1 1 24.318.175z" class="cls-4" transform="translate(-653.404 -178.19)"/>
        <path id="Path_826" fill="#4c3e42" d="M959.845 224.084c.221.37.279.851.575 1.157.487.5 1.274.244 1.95.257 1.566.026 2.71 1.687 3.09 3.324s.257 3.38.65 5.014a2.8 2.8 0 0 1 1.355-2.619 2.389 2.389 0 0 1 2.756.387c.588.559.975 1.456 1.761 1.625s1.514-.578 1.794-1.391a22.055 22.055 0 0 0 .439-2.544c.348-1.6 1.388-2.9 1.95-4.416a7.994 7.994 0 0 0-.052-5.706c-.383-.975-.952-1.823-1.342-2.782-.585-1.456-.741-3.1-1.456-4.484a5.274 5.274 0 0 0-6.363-2.6c-1.111.419-2.077 1.228-3.2 1.589a10.581 10.581 0 0 1-4.686-.1c-1.563-.218-3.292-.237-4.549.79-1.446 1.183-1.843 3.406-3.2 4.705-.572.546-1.28.894-1.881 1.4a2.575 2.575 0 0 0-1.053 2.073c.091 1.059 1.128 2.021.744 3a2.371 2.371 0 0 1-.569.747 10.723 10.723 0 0 0-2.473 4.208c2.736.855 5.693-2.161 7.835-3.575 1.402-.953 4.807-1.873 5.925-.059z" transform="translate(-646.944 -164.553)"/>
        <path id="Path_827" d="M1055.406 483.814l-1.271 1.05c-1.121-1.869-5.726-5.6-5.726-5.6l.2-.192c.426-.107.669-.162.669-.162z" class="cls-4" transform="translate(-716.02 -346.748)"/>
        <path id="Path_828" d="M1057.269 478.55s-.458 1.137-.929 2.122-.975 1.875-1.014 1.15c-.052-1.433-5.976-6.236-5.976-6.236l.8-.78.933-.907z" class="cls-6" transform="translate(-716.655 -343.366)"/>
        <path id="Path_829" d="M1057.575 452.5l.669 11.4c-1.586-2.466-5.944-8.793-8.745-8.589l6.795-7.8a8.732 8.732 0 0 0 .78-1c.257 3.242.501 5.989.501 5.989z" class="cls-4" transform="translate(-716.756 -324.876)"/>
        <path id="Path_830" d="M1058.964 478.55s-.458 1.137-.929 2.122c-1.781-2.444-4.225-5.326-6.174-5.866l.933-.907z" class="cls-4" transform="translate(-718.349 -343.366)"/>
        <path id="Path_831" d="M1063.12 361l1.839 1.43s3.064.052 3.37 2.6 3.116 3.73 3.116 3.73 2.1 2.093 2.1 3.064 1.583 2.707 1.583 2.86 1.534 3.269 1.329 3.831 1.625 3.016 1.072 3.935a22.573 22.573 0 0 0-1.229 2.55s-2.4 4.6-3.63 5.466-6.844 8.173-6.844 8.173-6.028 6.948-6.028 9.1c0 0-5.875-9.81-9.349-9.554l6.795-7.815s1.173-1.277 1.225-2.044 3.269-4.293 4.8-4.445c0 0 .254-2.1-.409-2.145s-1.225-1.687-1.225-1.687-4.5-5.313-4.549-8.686S1063.12 361 1063.12 361z" class="cls-3" transform="translate(-717.397 -267.154)"/>
        <path id="Path_832" d="M1090.495 376s-4.293 3.165-3.373 4.189 3.373-4.189 3.373-4.189z" class="cls-4" transform="translate(-742.065 -277.279)"/>
        <path id="Path_833" d="M1098.4 413.852s7.968-2.554 8.774 0z" class="cls-4" transform="translate(-749.766 -302.064)"/>
        <path id="Path_834" d="M922.737 374.08s0 11.647-1 12.8 1-12.8 1-12.8z" class="cls-4" transform="translate(-630.324 -275.983)"/>
        <path id="Path_835" d="M1067.11 385.63l1.482 4.163s.588-4.085-1.482-4.163z" class="cls-4" transform="translate(-728.644 -283.78)"/>
        <g id="Group_1982" class="cls-11" transform="translate(299.149 54.273)">
            <path id="Path_836" d="M954.127 242.145c.374-.959-.6-1.9-.734-2.925a1.949 1.949 0 0 0-.162.923c.065.777.65 1.5.79 2.216a1.311 1.311 0 0 0 .106-.214z" transform="translate(-950.917 -239.22)"/>
            <path id="Path_837" d="M966.271 259.84c-.367-1.625-.26-3.318-.63-4.926s-1.524-3.3-3.09-3.328c-.676 0-1.462.247-1.95-.257-.3-.305-.354-.786-.575-1.157-1.118-1.81-4.523-.894-5.917.036-2.089 1.388-4.959 4.293-7.64 3.636-.127.309-.247.621-.348.942 2.736.855 5.693-2.161 7.835-3.575 1.394-.926 4.8-1.846 5.918-.033.221.37.279.851.575 1.157.487.5 1.274.244 1.95.257 1.566.026 2.71 1.687 3.09 3.324s.257 3.38.65 5.014a2.776 2.776 0 0 1 .132-1.09z" transform="translate(-946.12 -245.912)"/>
            <path id="Path_838" d="M1015.843 274.331c-.279.812-1.007 1.557-1.794 1.391s-1.17-1.059-1.758-1.625a2.4 2.4 0 0 0-2.759-.383 2.778 2.778 0 0 0-1.355 2.473 2.668 2.668 0 0 1 1.2-1.479 2.389 2.389 0 0 1 2.756.387c.588.559.975 1.456 1.761 1.625s1.514-.578 1.794-1.391a7.151 7.151 0 0 0 .279-1.469 4.551 4.551 0 0 1-.124.471z" transform="translate(-988.01 -262.32)"/>
            <path id="Path_839" d="M1034.8 252.421c-.575 1.514-1.625 2.821-1.95 4.413-.072.325-.11.65-.15.975.348-1.586 1.384-2.889 1.95-4.4a7.709 7.709 0 0 0 .471-2.119 7.392 7.392 0 0 1-.321 1.131z" transform="translate(-1004.565 -247.368)"/>
        </g>
        <circle id="Ellipse_520" cx=".127" cy=".127" r=".127" fill="#e6e8ec" transform="translate(255.43 96.063)"/>
        <path id="Path_912" fill="url(#linear-gradient-2)" d="M168.427 374.833a12.349 12.349 0 0 1-2.369.708 23.808 23.808 0 0 1-4.3.406c.042.38.075.734.107 1.056.078.884.123 1.492.123 1.492l-1.524-.1-12.569-.858-7.351-1.089a13.716 13.716 0 0 0 1.156 1.352 6.08 6.08 0 0 0 1.469 1.141s6.632 5.372 7.78 5.42c.162 0 .214.162.188.419 2.791 0 11.471.406 9.063 5.238a3.851 3.851 0 0 1-1.972 1.92c-2.785 1.18-6.987-.942-9.151-2.245-.211.413-.413.8-.591 1.124-.367.692-.624 1.15-.624 1.15l-.218-.156-11.153-7.942-2.444-2.073a8.528 8.528 0 0 1-2.115-.367l-.325-.1a.623.623 0 0 0-.036.088 4.549 4.549 0 0 0-.2.78v.117a9.14 9.14 0 0 0-.091.913c0 .208-.016.429-.016.65-.02 4.426 1.755 11.539 1.755 11.539s4.6 11.728 2.967 14.435a1.218 1.218 0 0 1-.325.351 3.228 3.228 0 0 0-1.1 2.037c-.608 2.873.458 7.256.458 7.256s-.1.163-.263.416a12.564 12.564 0 0 1-1.209 1.625c-.068.078-.14.159-.214.234a5.659 5.659 0 0 1-.65.585c.042.127.088.257.133.4s.1.357.149.552a7.922 7.922 0 0 1-.406 4.78 13.169 13.169 0 0 0-.819 3.435 26.276 26.276 0 0 0 .166 6.467c-.049-.026-.091-.052-.14-.075q-5.391-2.817-10.629-5.885c-1.024-.591-2.041-1.2-3.051-1.8q-1.865-1.124-3.714-2.275-2.437-1.521-4.874-3.116l-.76-.507-.292-.2c-.413-.276-.819-.552-1.228-.832a62.414 62.414 0 0 1-4.595-6.824c-.231-.413-.439-.806-.611-1.167v-.02l-.11-.237-.458-.162c-.861-.3-1.407-.513-1.407-.513a15.942 15.942 0 0 0 .565-4.452 13.482 13.482 0 0 0-4.169-9.95c-4.926-4.657-5.606-9.255-5.677-11.019v-.325a4.072 4.072 0 0 1 .019-.445l.377-.361c-.955-.192-1.852-.279-1.852-.279s3.269-11.829 8.774-15.777c2.73-1.95 5-5.2 6.606-7.987a121.057 121.057 0 0 1 9.84-14.425l.991-1.251.289-.367.062-.075.078-.1q-.2-.306-.409-.6l-.091-.133a3.307 3.307 0 0 1-.744-2.077v-.188a2.5 2.5 0 0 1 .072-.383.365.365 0 0 0 .039.058c.465-1.352 2.255-1.95 3.575-2.7 3.11-1.748 4.436-5.573 5.1-9.131.517-2.769.946-5.872 3.09-7.65 1.384-1.144 3.25-1.521 4.65-2.655a8.716 8.716 0 0 0 1.976-2.538c.325-.552.6-1.124.907-1.677a16.916 16.916 0 0 1 5.612-6.327 9.325 9.325 0 0 1 8.1-1.072c1.017.387 1.95.975 2.925 1.407a11.394 11.394 0 0 0 1.859.578c1.986.465 4.075.585 5.94 1.414 3.032 1.345 5 4.322 6.8 7.149a34.065 34.065 0 0 1 3.23 5.752v-.224a8.25 8.25 0 0 1 .65 2.99 4.549 4.549 0 0 1-.14 1.3 3.723 3.723 0 0 1-2.021 2.317l-.153.075a6.479 6.479 0 0 1-.63.283c-.032.179-.068.361-.107.536-.016.075-.036.153-.055.227-.042.182-.091.361-.143.539a12.5 12.5 0 0 1-3.9 5.96 13.106 13.106 0 0 1-4.361 2.47c-.114.039-.234.068-.348.1a2.8 2.8 0 0 1-.409.757 2.188 2.188 0 0 1-.442.426 2.678 2.678 0 0 1-.325.189.435.435 0 0 1-.088.042 4.252 4.252 0 0 1-3.9-.673c-.058-.039-.114-.085-.169-.127a3.729 3.729 0 0 1-.062.582c-.033.2-.055.325-.091.494s-.049.25-.072.37l-.058.3-.039.166a25.529 25.529 0 0 1-3.62 8.806 12.568 12.568 0 0 1-.822 1.108l-.806 1.228v.166a13.987 13.987 0 0 1-2.089 7.731 22.53 22.53 0 0 1-1.446 2.174l.182.107c1.82 1.037 5.407 2.879 7.676 2.723 0 0 8.579 1.108 9.573.552.136-.078.27.029.393.26 1.388-.845 4.579-2.635 7.1-2.873 1.761-.169 3.194.419 3.461 2.6s-1.043 3.573-2.883 4.362z" transform="translate(-68.582 -232.708)"/>
        <path id="Path_913" d="M149.435 631.011a7.123 7.123 0 0 1 .468 6.249 15.872 15.872 0 0 0-.8 6.255c-1.024-.591-2.041-1.2-3.051-1.8q-1.865-1.124-3.714-2.275-2.437-1.521-4.874-3.116l-.76-.507-.292-.2a.611.611 0 0 0-.094-.13 59 59 0 0 1-4.481-6.863c-.273-.507-.51-.975-.7-1.4v-.024a2.734 2.734 0 0 1-.38-1.563 3.2 3.2 0 0 1 1.576-1.95c1.872-.975 4.874-.075 7.844 1.358a54.24 54.24 0 0 1 7.323 4.455l.263.192.026.019c.975.692 1.54 1.15 1.54 1.15a1.561 1.561 0 0 1 .106.15z" class="cls-14" transform="translate(-96.549 -444.2)"/>
        <path id="Path_914" d="M147.949 629.688a7.123 7.123 0 0 1 .468 6.255 15.882 15.882 0 0 0-.8 6.259q-1.534-.894-3.051-1.807-1.868-1.124-3.714-2.275c-1.625-1.017-3.25-2.057-4.858-3.12l-.76-.507-.292-.2a.7.7 0 0 0-.094-.13 58.413 58.413 0 0 1-4.481-6.863c-.273-.507-.51-.975-.7-1.4v-.02a2.743 2.743 0 0 1-.38-1.566 3.214 3.214 0 0 1 1.576-1.95c1.872-.975 4.874-.075 7.845 1.358a54.247 54.247 0 0 1 7.325 4.462l.263.192.026.02c.975.692 1.54 1.15 1.54 1.15l.087.142z" opacity="0.05" transform="translate(-95.557 -443.309)"/>
        <path id="Path_915" d="M177.733 640.614a7.937 7.937 0 0 1-.458 1.625 12.848 12.848 0 0 0-.738 2.925 25.84 25.84 0 0 0 .026 6.392q-5.391-2.817-10.629-5.885c-1.024-.591-2.041-1.2-3.051-1.8a9.382 9.382 0 0 0-.92-3.623 64.7 64.7 0 0 1-4.933-7.529c-.221-.39-.413-.767-.591-1.124v-.016c-.068-.143-.133-.28-.195-.416a3.712 3.712 0 0 1-.556-2.031 3.75 3.75 0 0 1 1.339-1.93c2.882-2.106 8.875.744 13.476 3.575l.114.068c.871.543 1.7 1.079 2.437 1.579l.432.292c1.9 1.3 3.168 2.31 3.168 2.31a6.922 6.922 0 0 1 .751 1.553 8.233 8.233 0 0 1 .27.942 7.854 7.854 0 0 1 .058 3.1z" class="cls-14" transform="translate(-113.376 -446.355)"/>
        <path id="Path_916" d="M131.848 628.6c2.362.825 5.849 1.921 7.747 1.95a3.665 3.665 0 0 0 .588-.029 67.894 67.894 0 0 1 9.232.452c1.514.133 2.973.273 4.179.4l3.029.325v-1.17c-.842-.578-1.82-1.222-2.866-1.872-4.618-2.853-10.685-5.768-13.59-3.646-4.091-1.976-8.244-2.925-9.424.591-.136.45.357 1.614 1.105 2.999z" class="cls-4" transform="translate(-96.542 -444.174)"/>
        <path id="Path_917" d="M99.247 548.157c.065 1.752.721 6.3 5.424 10.889 6 5.849 3.441 14.259 3.441 14.259s7.149 2.808 10.233 2.882a3.672 3.672 0 0 0 .588-.029c1.849-.257 9.2.422 13.424.848l3.029.325v-24.865l-33.126-8.046-3 2.99a5.848 5.848 0 0 0-.013.747z" class="cls-16" transform="translate(-75.292 -390.97)"/>
        <g id="Group_1984" class="cls-11" transform="translate(23.948 153.467)">
            <path id="Path_919" d="M181.36 642.871l.543.055v.266l-3.029-.325c-3.032-.305-7.666-.741-10.724-.868 2.115-.187 9.118.459 13.21.872z" transform="translate(-145.757 -610.284)"/>
            <path id="Path_920" d="M99.259 547.46l3-2.99 2 .484-2.5 2.505a5.847 5.847 0 0 0 0 .747c.065 1.752.721 6.294 5.424 10.889 6 5.849 3.441 14.256 3.441 14.256a56.528 56.528 0 0 0 9.3 2.8 8.055 8.055 0 0 0-.975.055 3.665 3.665 0 0 1-.588.029c-3.084-.078-10.233-2.886-10.233-2.886s2.557-8.407-3.441-14.256c-4.725-4.595-5.381-9.138-5.446-10.88a5.85 5.85 0 0 1 .018-.753z" transform="translate(-99.24 -544.47)"/>
        </g>
        <path id="Path_921" d="M303 495.015s10.018-6.948 10.75-.7-10.75 5.38-10.75 5.38z" class="cls-14" transform="translate(-212.838 -355.389)"/>
        <path id="Path_922" fill="#f7cddd" d="M234.658 487.7s5.417 3.575 8.416 3.363c0 0 8.189 1.1 9.141.549s1.537 7.935 1.537 7.935L240.3 498.6l-8.631-1.316s-4.315-2.632-4.315-4.9 7.304-4.684 7.304-4.684z" transform="translate(-161.771 -352.681)"/>
        <path id="Path_923" d="M234.658 487.7s5.417 3.575 8.416 3.363c0 0 8.189 1.1 9.141.549s1.537 7.935 1.537 7.935L240.3 498.6l-8.631-1.316s-4.315-2.632-4.315-4.9 7.304-4.684 7.304-4.684z" class="cls-9" transform="translate(-161.771 -352.681)"/>
        <path id="Path_924" d="M269.075 543.316s12.183-.5 9.453 5.17-11.958-1.215-11.958-1.215z" class="cls-14" transform="translate(-188.246 -390.217)"/>
        <path id="Path_925" d="M236.58 466.388s9.872-7.386 8.485-16.381-8.485 6.876-8.485 6.876z" class="cls-16" transform="translate(-168.002 -325.374)"/>
        <path id="Path_926" d="M245 354.714a12.491 12.491 0 0 0 7.8 11.565 11.192 11.192 0 0 0 1.605.533 12.669 12.669 0 0 0 1.771.325c.429.042.861.065 1.3.065a12.3 12.3 0 0 0 4.1-.712A12.478 12.478 0 1 0 245 354.714z" class="cls-14" transform="translate(-173.686 -254.479)"/>
        <path id="Path_927" d="M99.247 548.157c1.118.2 2.5.582 2.5 1.16 0 .975 15.6 6.242 15.6 6.242s-.585 1.362.975 3.7 14.243 15.8 14.243 15.8l-.042.4-.162 1.55-.773 7.412s4.874-1.755 6.434-1.56a2.123 2.123 0 0 0 1.557-.728 7.474 7.474 0 0 0-1.017-2.492s-1.264-.994-3.172-2.311v-24.864l-33.126-8.046-3 2.99a5.848 5.848 0 0 0-.017.747z" class="cls-4" transform="translate(-75.292 -390.97)"/>
        <path id="Path_928" d="M94.94 446.025s3.9.387 3.9 1.365 15.6 6.242 15.6 6.242-.585 1.362.975 3.7 14.243 15.8 14.243 15.8l-.975 9.359s4.874-1.755 6.434-1.56c.7.088 1.469-.559 2.106-1.3a13.611 13.611 0 0 0 1.407-2.005s-1.758-7.416.585-9.17-2.535-14.623-2.535-14.623-2.206-9.151-1.557-13.076a4.773 4.773 0 0 1 .188-.77.233.233 0 0 1 .029-.088c1.391-3.75 16.352-35.209 16.352-35.209a22.4 22.4 0 0 0-.188-2.668c-.029-.247-.068-.5-.117-.76a13.064 13.064 0 0 0-.3-1.388c-.085-.3-.175-.585-.283-.858-.461-1.189-1.17-2.1-2.229-2.125a6.479 6.479 0 0 0-3.9-1.644c-2.015-.263-4.874 0-8.774 1.644-9.164 3.9-11.309 4.095-11.309 4.095l-4.608 6.034-.949 1.241a119.355 119.355 0 0 0-9.395 14.262c-1.534 2.756-3.7 5.97-6.307 7.9-5.27 3.903-8.393 15.602-8.393 15.602z" class="cls-9" transform="translate(-72.389 -290.212)"/>
        <path id="Path_929" d="M162.594 482.3s-13.018 3.217-18.064 11.335z" class="cls-4" transform="translate(-105.864 -349.036)"/>
        <path id="Path_930" d="M183.8 526.18s-2.46 16.527-1.778 17.772 1.778-17.772 1.778-17.772z" class="cls-4" transform="translate(-131.092 -378.657)"/>
        <path id="Path_931" d="M189.8 543.649c.949 1.241 4.793 10.824 4.793 10.824l-1.111 16.089-.975 9.359s4.874-1.755 6.437-1.56c.7.088 1.469-.556 2.106-1.3-1.014-5.482-3.178-16.95-3.575-17.171-.517-.292-3.149-9.508-3.289-12.069s-3.805-8.332-3.805-8.332-1.53 2.919-.581 4.16z" class="cls-4" transform="translate(-136.215 -387.642)"/>
        <path id="Path_932" d="M201.65 439.515c.237.731.614 4.972.614 4.972a5.718 5.718 0 0 0 4.848 5.352 4.772 4.772 0 0 1 .188-.77c1.17-3.311 16.381-35.3 16.381-35.3a21 21 0 0 0-.608-4.816c-3.311-.975-8.556.526-8.556.526-1.514-.2-6.457 9.632-6.457 9.632s-3.3 7.529-3.656 8.553 0 2.71-.146 3.3-1.687 1.092-1.9 1.9-.075 2.408-.221 2.7a11.761 11.761 0 0 0-.487 3.951z" class="cls-4" transform="translate(-144.381 -299.304)"/>
        <path id="Path_933" d="M205.255 437.722c.24.731.614 4.972.614 4.972a5.521 5.521 0 0 0 3.9 5.079 8.221 8.221 0 0 0 2.34.468l2.353 2.041 10.857 8.01s4.049-7.474 2.951-7.523-7.432-5.362-7.432-5.362c-1.95-1.033-3.88-4.491-4.78-6.265a5.051 5.051 0 0 0 .117-.65c.393-3.311 8.582-15.988 8.582-15.988a23.984 23.984 0 0 0 4.4-10.633c.036-.156.058-.325.088-.484a5.3 5.3 0 0 0 .065-.65c.146-2.655-1.784-3.62-4.078-3.851a16.516 16.516 0 0 0-3.575.111 25.744 25.744 0 0 0-3.51.689c-.975-.127-3.4 3.951-4.985 6.84-.855 1.566-1.469 2.791-1.469 2.791s-3.311 7.533-3.682 8.556 0 2.707-.146 3.3-1.687 1.092-1.9 1.9-.078 2.408-.224 2.7a11.929 11.929 0 0 0-.486 3.949z" class="cls-9" transform="translate(-146.816 -298.096)"/>
        <path id="Path_934" d="M166.61 377.259c2.06 2.119 5.42 2.125 8.1 1.05s4.962-3.038 7.455-4.549c1.625-.975 3.328-1.8 4.92-2.814.234-.153.461-.305.682-.461 1.839-1.3 3.428-2.967 5.329-4.159a8.294 8.294 0 0 1 4.283-1.371 4.852 4.852 0 0 1 2.044.429 2.639 2.639 0 0 1 .325.169 8.879 8.879 0 0 1 1.722 1.3c.536.484 1.053 1 1.625 1.449.036-.156.058-.325.088-.484a5.3 5.3 0 0 0 .065-.65c.429.042.861.065 1.3.065a12.3 12.3 0 0 0 4.1-.728.914.914 0 0 1 .029-.159c.468-2.457 1.3-5.06 3.289-6.441 1.147-.8 2.98-1.128 4.566-1.739a12.478 12.478 0 1 0-23.514 1.352c-2.015-.263-4.874 0-8.774 1.644-9.164 3.9-11.309 4.094-11.309 4.094l-4.582 6.044a5.177 5.177 0 0 1 1.111 2.4c.113 1.642-1.473 2.776-2.854 3.559z" class="cls-4" transform="translate(-120.769 -254.492)"/>
        <path id="Path_935" fill="#7c5c5c" d="M212 340.829c-1.979 1.384-2.821 3.984-3.289 6.437a5.062 5.062 0 0 1-.754 2.184c-1.05 1.362-3.162.975-4.533 0s-2.45-2.457-3.981-3.149c-2.034-.916-4.423-.247-6.324.946s-3.493 2.86-5.333 4.156c-1.778 1.254-3.76 2.148-5.612 3.276-2.489 1.518-4.764 3.477-7.451 4.549s-6.044 1.072-8.1-1.046c1.381-.767 2.967-1.9 2.86-3.542s-2.021-2.873-1.891-4.549 2.109-2.346 3.529-3.172c2.973-1.729 4.224-5.524 4.874-9.034.494-2.739.9-5.8 2.951-7.562 1.319-1.134 3.11-1.5 4.439-2.626a13.729 13.729 0 0 0 2.756-4.166 16.548 16.548 0 0 1 5.355-6.262 8.646 8.646 0 0 1 7.741-1.056c.975.38 1.846.975 2.8 1.388 2.372 1.027 5.092.89 7.445 1.969 2.9 1.332 4.777 4.276 6.5 7.071 1.472 2.388 4.351 6.616 3.545 9.7-.827 3.152-5.382 2.983-7.527 4.488z" transform="translate(-120.776 -236.584)"/>
        <g id="Group_1985" class="cls-11" transform="translate(45.831 95.504)">
            <path id="Path_936" d="M169.587 420.08a2.019 2.019 0 0 1 .068-.38 5.836 5.836 0 0 1 1.238 2.6 2.246 2.246 0 0 1-.055.666c-.581-.936-1.332-1.81-1.251-2.886z" transform="translate(-168.606 -402.282)"/>
            <path id="Path_937" d="M174.109 390.7c2.687-1.079 4.962-3.038 7.451-4.549 1.852-1.128 3.835-2.021 5.612-3.276 1.839-1.3 3.432-2.967 5.333-4.156s4.289-1.862 6.324-.946c1.531.692 2.6 2.158 3.981 3.149s3.484 1.378 4.533.016a5.006 5.006 0 0 0 .754-2.18c.468-2.457 1.3-5.056 3.289-6.441 2.151-1.5 6.7-1.332 7.529-4.5a4.874 4.874 0 0 0 .107-1.719 6.913 6.913 0 0 1 .481 4.059c-.829 3.168-5.381 3-7.533 4.5-1.976 1.384-2.821 3.984-3.289 6.441a5.03 5.03 0 0 1-.751 2.18c-1.053 1.362-3.165.975-4.549-.016s-2.45-2.457-3.981-3.149c-2.034-.916-4.423-.244-6.324.946s-3.493 2.86-5.333 4.156c-1.778 1.258-3.76 2.148-5.612 3.276-2.489 1.521-4.764 3.477-7.451 4.549s-6.044 1.069-8.1-1.05a10.113 10.113 0 0 0 1.508-1 8.663 8.663 0 0 0 6.021-.29z" transform="translate(-166.58 -366.1)"/>
        </g>
        <path id="Path_938" fill="#61bc08" d="M492.116 311.388l-13.323-13.4a7.074 7.074 0 0 0-10.048-.068l-83.664 82.956-35.375-35.651a7.055 7.055 0 0 0-9.976-.071l-13.466 13.323a7.149 7.149 0 0 0-.068 10.048l53.722 54.145a7.149 7.149 0 0 0 10.048.072l102.075-101.31a7.074 7.074 0 0 0 .075-10.044z" transform="translate(-229.372 -223.182)"/>
    </g>
</svg>
