<svg xmlns="http://www.w3.org/2000/svg" width="56.943" height="57.166" viewBox="0 0 56.943 57.166">
  <g id="edit-color" transform="translate(0 -0.001)">
    <path id="Path_12020" data-name="Path 12020" d="M284.4,250,271,254.466l13.4,4.466,13.4-4.466Z" transform="translate(-240.853 -222.086)" fill="#fff"/>
    <path id="Path_12021" data-name="Path 12021" d="M1,254.466l13.4,4.466,13.4-4.466L14.4,250Z" transform="translate(-1 -222.086)" fill="#fff"/>
    <path id="Path_12022" data-name="Path 12022" d="M149.928.086a1.675,1.675,0,0,0-1.059,0L136,4.376l13.4,4.466,13.4-4.466Z" transform="translate(-120.927 0)" fill="#fff"/>
    <path id="Path_12023" data-name="Path 12023" d="M136,342.879l11.724-3.908V321.623L136,325.531Z" transform="translate(-120.927 -285.712)" fill="#fff"/>
    <path id="Path_12024" data-name="Path 12024" d="M1,337.764a1.675,1.675,0,0,0,1.145,1.589l10.578,3.526V325.531L1,321.623Z" transform="translate(-1 -285.712)" fill="#fff"/>
    <path id="Path_12025" data-name="Path 12025" d="M271,338.971l11.724,3.908V325.531L271,321.623Z" transform="translate(-240.853 -285.712)" fill="#fff"/>
    <path id="Path_12026" data-name="Path 12026" d="M406,342.879l10.578-3.526a1.675,1.675,0,0,0,1.145-1.589V321.623L406,325.531Z" transform="translate(-360.78 -285.712)" fill="#fff"/>
    <path id="Path_12027" data-name="Path 12027" d="M136,88.473l11.724,3.908V74.719L136,70.811Z" transform="translate(-120.927 -62.904)" fill="#fff"/>
    <path id="Path_12028" data-name="Path 12028" d="M282.724,88.473V70.811L271,74.719V92.381Z" transform="translate(-240.853 -62.904)" fill="#fff"/>
  </g>
</svg>
