<svg xmlns="http://www.w3.org/2000/svg" width="69.962" height="69.962" viewBox="0 0 69.962 69.962">
  <g id="Group_5015" data-name="Group 5015" transform="translate(-839.038 -367.038)">
    <g id="Layer_2" data-name="Layer 2" transform="translate(838.038 366.038)">
      <path id="Path_12034" data-name="Path 12034" d="M53.243,28.815,45.19,20.687a.354.354,0,0,0-.317-.13.447.447,0,0,0-.317.149l-5.369,5.686a3.728,3.728,0,0,1-2.7,1.174h0a3.728,3.728,0,0,1-2.7-1.174L22.261,14.107a.447.447,0,0,0-.6,0L3.732,28.088l-2.312-3L19.278,11.106a4.157,4.157,0,0,1,5.592.447l11.5,12.285L41.7,18.152a4.138,4.138,0,0,1,2.983-1.324,4.064,4.064,0,0,1,3.02,1.23l8.053,8.128Z" transform="translate(0.363 7.976)" fill="#fff"/>
      <path id="Path_12035" data-name="Path 12035" d="M49.616,56.924H8.307A7.307,7.307,0,0,1,1,49.616V8.307A7.307,7.307,0,0,1,8.307,1H49.616a7.307,7.307,0,0,1,7.307,7.307V49.616A7.307,7.307,0,0,1,49.616,56.924ZM8.307,4.728A3.579,3.579,0,0,0,4.728,8.307V49.616A3.579,3.579,0,0,0,8.307,53.2H49.616A3.579,3.579,0,0,0,53.2,49.616V8.307a3.579,3.579,0,0,0-3.579-3.579Z" transform="translate(0 0)" fill="#fff"/>
      <circle id="Ellipse_547" data-name="Ellipse 547" cx="3.728" cy="3.728" r="3.728" transform="translate(33.305 13.732)" fill="#fff"/>
      <path id="Path_12036" data-name="Path 12036" d="M2,26.309l17.765-14.3,3.281-.391L33.8,23.1s1.864,2.554,3.449.8l5.35-5.686s1.063-2.33,3.337,0S54.2,28.173,54.2,28.173l-.13,13.478s-.559,4.232-6.04,4.232S7.015,45.3,7.015,45.3,2,46.535,2,40.439Z" transform="translate(0.864 9.177)" fill="#fff" opacity="0.75"/>
    </g>
    <g id="Group_5011" data-name="Group 5011" transform="translate(845.322 408.66)">
      <g id="Ellipse_546" data-name="Ellipse 546" transform="translate(34.678 -0.66)" fill="#fff" stroke="#3f3fd3" stroke-width="2">
        <circle cx="14.5" cy="14.5" r="14.5" stroke="none"/>
        <circle cx="14.5" cy="14.5" r="13.5" fill="none"/>
      </g>
      <path id="Path_12037" data-name="Path 12037" d="M50.984,55.127a1.659,1.659,0,0,0,2.347,0l2.976-2.976,2.976,2.976a1.66,1.66,0,1,0,2.347-2.347L58.654,49.8l2.976-2.976a1.66,1.66,0,0,0-2.347-2.347l-2.976,2.976L53.331,44.48a1.66,1.66,0,0,0-2.347,2.347L53.96,49.8l-2.976,2.976A1.658,1.658,0,0,0,50.984,55.127Z" transform="translate(-6.819 -35.823)" fill="#3f3fd3"/>
    </g>
  </g>
</svg>
