<svg xmlns="http://www.w3.org/2000/svg" width="107.093" height="29.696" viewBox="0 0 107.093 29.696">
  <g id="Group_4766" data-name="Group 4766" transform="translate(-210.58 -7936.26)">
    <path id="Path_930" data-name="Path 930" d="M1477.84,285.635a6.327,6.327,0,0,1,6.543-6.371,6.448,6.448,0,0,1,4.343,1.568l-1.646,1.8a3.7,3.7,0,0,0-2.543-.937,3.972,3.972,0,0,0-.1,7.939,3.937,3.937,0,0,0,2.966-1.282l1.663,1.876a6.6,6.6,0,0,1-4.687,1.836A6.339,6.339,0,0,1,1477.84,285.635Z" transform="translate(-1241.43 7663.825)" fill="#fff"/>
    <path id="Path_931" data-name="Path 931" d="M1540.72,299.2c0-2.76,1.686-4.982,4.33-4.982a3.737,3.737,0,0,1,2.987,1.36v-1.168h2.511v9.58h-2.511v-1.149a3.694,3.694,0,0,1-2.987,1.341C1542.406,304.183,1540.72,301.954,1540.72,299.2Zm7.26,0a2.379,2.379,0,0,0-2.276-2.606,2.616,2.616,0,0,0,0,5.21A2.357,2.357,0,0,0,1547.98,299.2Z" transform="translate(-1292.384 7651.705)" fill="#fff"/>
    <path id="Path_932" data-name="Path 932" d="M1599.456,294.415h2.578v1.876a3.393,3.393,0,0,1,3.414-2.071v2.845c-2.266,0-3.38,1.036-3.38,3.359v3.751h-2.617Z" transform="translate(-1339.976 7651.705)" fill="#fff"/>
    <path id="Path_933" data-name="Path 933" d="M1640.7,290.727v1.149h-2.433V279.27h2.568v4.1a3.763,3.763,0,0,1,2.892-1.265c2.644,0,4.362,2.223,4.362,4.982s-1.686,4.98-4.33,4.98A3.848,3.848,0,0,1,1640.7,290.727Zm4.789-3.64a2.422,2.422,0,0,0-2.375-2.606,2.629,2.629,0,0,0,0,5.21A2.411,2.411,0,0,0,1645.492,287.088Z" transform="translate(-1371.433 7663.82)" fill="#fff"/>
    <path id="Path_934" data-name="Path 934" d="M1695.92,299.2c0-2.76,1.686-4.982,4.33-4.982a3.74,3.74,0,0,1,2.989,1.36v-1.168h2.511v9.58h-2.511v-1.149a3.7,3.7,0,0,1-2.989,1.341C1697.606,304.183,1695.92,301.954,1695.92,299.2Zm7.262,0a2.379,2.379,0,0,0-2.276-2.606,2.616,2.616,0,0,0,0,5.21,2.362,2.362,0,0,0,2.276-2.6Z" transform="translate(-1418.15 7651.705)" fill="#fff"/>
    <path id="Path_935" data-name="Path 935" d="M1754.491,294.415h2.553v1.309a3.648,3.648,0,0,1,3.086-1.5c2.579,0,3.478,1.66,3.478,4.338v5.625h-2.617v-5.293c0-1.426-.379-2.189-1.707-2.189a2.262,2.262,0,0,0-2.187,2.54v4.943h-2.617Z" transform="translate(-1465.603 7651.705)" fill="#fff"/>
    <path id="Path_936" data-name="Path 936" d="M1809,280.53a1.273,1.273,0,1,1,1.265,1.265A1.273,1.273,0,0,1,1809,280.53Z" transform="translate(-1509.782 7663.835)" fill="#fff"/>
    <rect id="Rectangle_2195" data-name="Rectangle 2195" width="2.545" height="9.737" transform="translate(299.225 7946.15)" fill="#fff"/>
    <path id="Path_937" data-name="Path 937" d="M1827.85,299.2a5.131,5.131,0,1,1,5.121,4.98A5.016,5.016,0,0,1,1827.85,299.2Zm7.626,0a2.512,2.512,0,1,0-2.511,2.6A2.493,2.493,0,0,0,1835.476,299.2Z" transform="translate(-1525.058 7651.705)" fill="#fff"/>
    <path id="Path_938" data-name="Path 938" d="M1882.569,279.685h-.759v-.415h2v.415h-.759v1.825h-.484Z" transform="translate(-1568.784 7663.82)" fill="#fff"/>
    <path id="Path_939" data-name="Path 939" d="M1893.92,279.27h.419l.351.5.406.58.4-.569.353-.5h.417v2.24h-.484V280.1s-.087.14-.2.311l-.486.694-.491-.7c-.114-.163-.2-.307-.2-.307v1.417h-.484Z" transform="translate(-1578.597 7663.82)" fill="#fff"/>
    <path id="Path_940" data-name="Path 940" d="M1344.777,278.86a7.933,7.933,0,0,1,6.509-7.8,13.275,13.275,0,0,0-2.238-.19,12.672,12.672,0,0,0-4.854.948,11.053,11.053,0,0,0,0,14.1,12.689,12.689,0,0,0,4.855.948,13.086,13.086,0,0,0,2.238-.19,7.928,7.928,0,0,1-6.511-7.812Z" transform="translate(-1131.075 7670.626)" fill="#fff"/>
    <path id="Path_941" data-name="Path 941" d="M1377.7,259.667a7.935,7.935,0,0,1,1.986,2.466h3.4a11.048,11.048,0,0,0-16.832-5.381,14.5,14.5,0,0,1,2.737-.262A12.949,12.949,0,0,1,1377.7,259.667Z" transform="translate(-1151.004 7683.72)" fill="#fff"/>
    <path id="Path_942" data-name="Path 942" d="M1377.631,334.623a12.943,12.943,0,0,1-8.724,3.169,14.494,14.494,0,0,1-2.737-.262,11.048,11.048,0,0,0,16.847-5.381h-3.389A7.947,7.947,0,0,1,1377.631,334.623Z" transform="translate(-1150.939 7620.969)" fill="#fff"/>
    <path id="Path_943" data-name="Path 943" d="M1372.556,279.27a6.4,6.4,0,1,0,5.265,10.029h-5.265a3.63,3.63,0,1,1,0-7.26h5.265A6.4,6.4,0,0,0,1372.556,279.27Z" transform="translate(-1150.924 7663.82)" fill="#61bc08"/>
    <path id="Path_944" data-name="Path 944" d="M1341.65,246.562a2.24,2.24,0,0,1,.461-1.328l1.47-1.974.789.537-.842,1.109a.987.987,0,0,1,.142-.013,1.6,1.6,0,0,1,1.639,1.61,1.712,1.712,0,0,1-1.832,1.766A1.674,1.674,0,0,1,1341.65,246.562Zm2.615,0a.775.775,0,0,0-.789-.812.759.759,0,0,0-.783.812.767.767,0,0,0,.783.842.777.777,0,0,0,.789-.85Z" transform="translate(-1131.07 7693)" fill="#fff"/>
    <path id="Path_945" data-name="Path 945" d="M1358.933,385.665l-.611.4-.262-.41.933-.742h.523v2.826h-.584Z" transform="translate(-1144.368 7578.215)" fill="#fff"/>
    <path id="Path_946" data-name="Path 946" d="M1369.31,387.336c.948-.759,1.392-1.2,1.392-1.565a.379.379,0,0,0-.415-.379,1.01,1.01,0,0,0-.637.292l-.3-.379a1.358,1.358,0,0,1,.982-.434.871.871,0,0,1,.981.842c0,.55-.541,1.087-1.064,1.474h1.151v.51h-2.086Z" transform="translate(-1153.484 7578.248)" fill="#fff"/>
    <path id="Path_947" data-name="Path 947" d="M1382.72,390.887a.347.347,0,0,1,.694,0,.347.347,0,0,1-.694,0Z" transform="translate(-1164.351 7573.653)" fill="#fff"/>
    <path id="Path_948" data-name="Path 948" d="M1388.38,386.323c0-.829.461-1.413,1.128-1.413s1.127.584,1.127,1.413-.463,1.413-1.127,1.413S1388.38,387.154,1388.38,386.323Zm1.644,0c0-.533-.174-.9-.516-.9s-.523.379-.523.9.189.907.523.907S1390.024,386.856,1390.024,386.323Z" transform="translate(-1168.937 7578.215)" fill="#fff"/>
    <path id="Path_949" data-name="Path 949" d="M1403.272,385.665l-.611.4-.262-.41.933-.742h.523v2.826h-.584Z" transform="translate(-1180.298 7578.215)" fill="#fff"/>
    <path id="Path_950" data-name="Path 950" d="M1413.58,386.323c0-.829.463-1.413,1.138-1.413s1.125.584,1.125,1.413-.461,1.413-1.125,1.413S1413.58,387.154,1413.58,386.323Zm1.644,0c0-.533-.174-.9-.514-.9s-.523.379-.523.9.178.907.523.907S1415.224,386.856,1415.224,386.323Z" transform="translate(-1189.358 7578.215)" fill="#fff"/>
    <path id="Path_951" data-name="Path 951" d="M1428.647,385.43h-1.487v-.52h2.164v.366l-1.195,2.466h-.637Z" transform="translate(-1200.362 7578.215)" fill="#fff"/>
  </g>
</svg>
